<?xml version="1.0" encoding="utf-8"?>
<!-- Generator: Adobe Illustrator 25.4.0, SVG Export Plug-In . SVG Version: 6.00 Build 0)  -->
<svg version="1.1" id="Layer_1" xmlns="http://www.w3.org/2000/svg" xmlns:xlink="http://www.w3.org/1999/xlink" x="0px" y="0px"
	 viewBox="0 0 113 113" style="enable-background:new 0 0 113 113;" xml:space="preserve">
<style type="text/css">
	.st0{fill:none;stroke:#6E6E6E;stroke-width:2;stroke-linecap:round;stroke-linejoin:round;stroke-miterlimit:10;}
	.st1{fill:none;stroke:#DFDFE1;stroke-width:2;stroke-linecap:round;stroke-linejoin:round;stroke-miterlimit:10;}
</style>
<g>
	<path class="st0" d="M68.9,51.3l6.02-3.01c2.56-1.28,5.58,0.58,5.58,3.45v0c0,2.95-1.57,5.67-4.13,7.15L65.5,65.2"/>
	<path class="st0" d="M44.5,51.5l-6.42-3.21c-2.56-1.28-5.58,0.58-5.58,3.45v0c0,2.95,1.57,5.67,4.13,7.15L48.1,65.5"/>
	<path class="st0" d="M68.7,56.74V45.5H44.5v11.24c0,4.75,2.69,9.1,6.94,11.22l0,0c1.88,0.94,3.06,2.86,3.06,4.96v0.82
		c0,3.18-2.57,5.75-5.75,5.75H46.5c-1.1,0-2,0.9-2,2l0,0c0,1.1,0.9,2,2,2h20.2c1.1,0,2-0.9,2-2l0,0c0-1.1-0.9-2-2-2h-2.25
		c-3.18,0-5.75-2.57-5.75-5.75v-0.82c0-2.1,1.19-4.02,3.06-4.96l0,0C66.01,65.84,68.7,61.5,68.7,56.74z"/>
	<path class="st0" d="M44.5,44.8V29.5l5.15,6.29c0.7,0.85,2.02,0.8,2.64-0.12l4.21-6.18l4.21,6.18c0.62,0.91,1.94,0.97,2.64,0.12
		l5.15-6.29v15.3"/>
	<line class="st0" x1="43.5" y1="45.5" x2="69.42" y2="45.5"/>
</g>
<circle class="st1" cx="56.5" cy="56.5" r="54.75"/>
</svg>
