<?xml version="1.0" encoding="utf-8"?>
<!-- Generator: Adobe Illustrator 25.4.0, SVG Export Plug-In . SVG Version: 6.00 Build 0)  -->
<svg version="1.1" id="Layer_1" xmlns="http://www.w3.org/2000/svg" xmlns:xlink="http://www.w3.org/1999/xlink" x="0px" y="0px"
	 viewBox="0 0 113 113" style="enable-background:new 0 0 113 113;" xml:space="preserve">
<style type="text/css">
	.st0{fill:none;stroke:#6E6E6E;stroke-width:2;stroke-linecap:round;stroke-linejoin:round;stroke-miterlimit:10;}
	.st1{fill:none;stroke:#DFDFE1;stroke-width:2;stroke-linecap:round;stroke-linejoin:round;stroke-miterlimit:10;}
</style>
<g>
	<path class="st0" d="M84,76.5H28.91c-1.38,0-2.5-1.12-2.5-2.5V38.94c0-1.38,1.12-2.5,2.5-2.5H84c1.38,0,2.5,1.12,2.5,2.5V74
		C86.5,75.38,85.38,76.5,84,76.5z"/>
	<path class="st0" d="M37.68,48.96h-5.01c-0.69,0-1.25-0.56-1.25-1.25V42.7c0-0.69,0.56-1.25,1.25-1.25h5.01
		c0.69,0,1.25,0.56,1.25,1.25v5.01C38.93,48.4,38.37,48.96,37.68,48.96z"/>
	<path class="st0" d="M76.48,61.48c-1.5,0-2.84,0.68-3.76,1.73c-0.92-1.05-2.25-1.73-3.76-1.73c-2.77,0-5.01,2.24-5.01,5.01
		c0,2.77,2.24,5.01,5.01,5.01c1.5,0,2.84-0.68,3.76-1.73c0.92,1.05,2.25,1.73,3.76,1.73c2.77,0,5.01-2.24,5.01-5.01
		C81.49,63.72,79.25,61.48,76.48,61.48z"/>
	<line class="st0" x1="33.92" y1="71.49" x2="56.45" y2="71.49"/>
	<line class="st0" x1="33.92" y1="66.48" x2="38.93" y2="66.48"/>
	<line class="st0" x1="43.94" y1="66.48" x2="48.94" y2="66.48"/>
</g>
<circle class="st1" cx="56.5" cy="56.5" r="54.75"/>
</svg>
